HIERARCHY
ROOT Hips
{
	OFFSET -0.001795 -0.223333 0.028219
	CHANNELS 6 Xposition Yposition Zposition Zrotation Yrotation Xrotation 
	JOINT LeftUpLeg
	{
		OFFSET 0.069520 -0.091406 -0.006815
		CHANNELS 3 Zrotation Yrotation Xrotation
		JOINT LeftLeg
		{
			OFFSET 0.034277 -0.375199 -0.004496
			CHANNELS 3 Zrotation Yrotation Xrotation
			JOINT LeftFoot
			{
				OFFSET -0.013596 -0.397961 -0.043693
				CHANNELS 3 Zrotation Yrotation Xrotation
				JOINT LeftToe
				{
					OFFSET 0.026358 -0.055791 0.119288
					CHANNELS 3 Zrotation Yrotation Xrotation
					End Site
					{
						OFFSET 0.000000 0.000000 0.000000
					}
				}
			}
		}
	}
	JOINT RightUpLeg
	{
		OFFSET -0.067670 -0.090522 -0.004320
		CHANNELS 3 Zrotation Yrotation Xrotation
		JOINT RightLeg
		{
			OFFSET -0.038290 -0.382569 -0.008850
			CHANNELS 3 Zrotation Yrotation Xrotation
			JOINT RightFoot
			{
				OFFSET 0.015774 -0.398415 -0.042312
				CHANNELS 3 Zrotation Yrotation Xrotation
				JOINT RightToe
				{
					OFFSET -0.025372 -0.048144 0.123348
					CHANNELS 3 Zrotation Yrotation Xrotation
					End Site
					{
						OFFSET 0.000000 0.000000 0.000000
					}
				}
			}
		}
	}
	JOINT Spine
	{
		OFFSET -0.002533 0.108963 -0.026696
		CHANNELS 3 Zrotation Yrotation Xrotation
		JOINT Spine1
		{
			OFFSET 0.005487 0.135180 0.001092
			CHANNELS 3 Zrotation Yrotation Xrotation
			JOINT Spine2
			{
				OFFSET 0.001457 0.052922 0.025425
				CHANNELS 3 Zrotation Yrotation Xrotation
				JOINT Neck
				{
					OFFSET -0.002778 0.213870 -0.042857
					CHANNELS 3 Zrotation Yrotation Xrotation
					JOINT Head
					{
						OFFSET 0.005152 0.064970 0.051349
						CHANNELS 3 Zrotation Yrotation Xrotation
						End Site
						{
							OFFSET 0.000000 0.000000 0.000000
						}
					}
				}
				JOINT LeftShoulder
				{
					OFFSET 0.078845 0.121749 -0.034090
					CHANNELS 3 Zrotation Yrotation Xrotation
					JOINT LeftArm
					{
						OFFSET 0.090977 0.030469 -0.008868
						CHANNELS 3 Zrotation Yrotation Xrotation
						JOINT LeftForeArm
						{
							OFFSET 0.259612 -0.012772 -0.027456
							CHANNELS 3 Zrotation Yrotation Xrotation
							JOINT LeftHand
							{
								OFFSET 0.249234 0.008986 -0.001171
								CHANNELS 3 Zrotation Yrotation Xrotation
								End Site
								{
									OFFSET 0.000000 0.000000 0.000000
								}
							}
						}
					}
				}
				JOINT RightShoulder
				{
					OFFSET -0.081759 0.118833 -0.038615
					CHANNELS 3 Zrotation Yrotation Xrotation
					JOINT RightArm
					{
						OFFSET -0.096012 0.032551 -0.009143
						CHANNELS 3 Zrotation Yrotation Xrotation
						JOINT RightForeArm
						{
							OFFSET -0.253742 -0.013329 -0.021401
							CHANNELS 3 Zrotation Yrotation Xrotation
							JOINT RightHand
							{
								OFFSET -0.255298 0.007772 -0.005559
								CHANNELS 3 Zrotation Yrotation Xrotation
								End Site
								{
									OFFSET 0.000000 0.000000 0.000000
								}
							}
						}
					}
				}
			}
		}
	}
}
MOTION
Frames: 16
Frame Time: 0.050000
0.000000 0.947843 0.000000 -1.122954 14.683478 3.051018 4.208643 -0.138237 1.876559 -0.464192 0.167325 -5.636351 0.217450 4.831470 7.997476 0.000000 0.000000 0.000000 -1.671220 0.255870 -2.779979 -0.741825 0.051382 -1.086017 1.467970 1.841091 5.711508 0.000000 0.000000 0.000000 0.982448 0.086312 -2.584186 2.124899 -0.831956 -2.085616 -3.130733 -1.985593 6.126361 4.792610 -1.947155 -10.689955 0.000000 0.000000 0.000000 -18.902427 -2.121911 -2.316746 -49.475094 0.156726 -5.679623 -23.959934 -28.688311 6.724190 0.000000 0.000000 0.000000 19.377370 -2.159571 -1.293559 56.332730 5.989877 -3.020686 12.407503 29.373066 4.613495 0.000000 0.000000 0.000000 
0.000014 0.946399 0.000961 -1.095035 14.787015 3.585591 3.587368 -0.095840 1.928168 0.611914 0.150098 -6.322364 0.659946 5.487526 7.780666 0.000000 0.000000 0.000000 -2.559298 0.242666 -2.885526 0.523634 -0.113591 -1.332941 2.593853 4.283739 5.995595 0.000000 0.000000 0.000000 0.941570 0.108292 -3.292240 1.696183 -0.675189 -1.649703 -2.486217 -2.640782 5.892435 3.986033 -1.399348 -11.078436 0.000000 0.000000 0.000000 -18.750196 -1.020799 -2.674149 -49.950972 1.299306 -6.241471 -25.610664 -29.878949 7.521796 0.000000 0.000000 0.000000 18.302796 -2.840449 -1.821454 57.937489 5.480736 -3.188576 11.852241 29.742127 4.491321 0.000000 0.000000 0.000000 
-0.000004 0.946400 0.001686 -1.005262 15.344038 3.627024 3.711094 -0.112013 1.878949 0.397110 0.147292 -6.016886 0.404215 5.087201 7.768251 0.000000 0.000000 0.000000 -2.337147 0.260900 -3.071760 0.056775 -0.043489 -0.972502 2.429645 4.241571 5.212180 0.000000 0.000000 0.000000 0.540858 0.093924 -2.992789 2.428618 -0.833344 -3.487638 -3.149634 -3.290391 7.064560 3.192962 -1.032876 -10.040804 0.000000 0.000000 0.000000 -17.874656 -0.631608 -2.672344 -50.988351 1.885029 -6.783251 -26.005912 -29.473081 7.544699 0.000000 0.000000 0.000000 18.869471 -2.338258 -1.551566 56.694093 4.583798 -3.723795 11.722960 31.004648 4.691767 0.000000 0.000000 0.000000 
-0.000028 0.946010 0.002302 -1.218471 16.208463 3.650393 3.826821 -0.129935 1.896456 0.661807 0.134185 -5.882769 0.529064 4.990027 7.018762 0.000000 0.000000 0.000000 -2.611425 0.254192 -3.144053 0.822730 -0.138310 -0.793866 2.944386 5.485391 5.160054 0.000000 0.000000 0.000000 0.742139 0.098836 -3.140939 2.193550 -0.788977 -2.783294 -2.677738 -4.200457 6.206685 2.821629 -0.932163 -9.178426 0.000000 0.000000 0.000000 -17.751387 0.254017 -2.982646 -51.206706 3.034922 -7.253699 -28.070176 -30.799313 8.524225 0.000000 0.000000 0.000000 18.151320 -2.309784 -1.671393 56.697595 3.513754 -4.094027 12.311874 32.644751 5.087623 0.000000 0.000000 0.000000 
-0.000177 0.946173 0.002702 -1.227535 16.623895 3.524447 3.845609 -0.125935 2.145426 0.641427 0.130615 -5.755914 0.157341 4.637483 7.534433 0.000000 0.000000 0.000000 -2.551682 0.222792 -2.751013 0.743310 -0.141562 -1.263703 2.566992 4.508948 5.575246 0.000000 0.000000 0.000000 0.519662 0.086824 -2.817050 3.084671 -1.168771 -2.989474 -3.210016 -4.359901 6.049077 2.589737 -0.852187 -8.465271 0.000000 0.000000 0.000000 -17.842693 0.551820 -3.197905 -50.958303 3.802628 -7.496019 -30.418353 -31.175776 9.272141 0.000000 0.000000 0.000000 17.919190 -3.062112 -2.040508 56.143311 2.255453 -4.607259 14.089111 34.950394 6.088553 0.000000 0.000000 0.000000 
-0.000461 0.946192 0.002890 -1.426113 16.956245 3.449833 3.943965 -0.140582 2.060117 1.031529 0.113944 -5.571317 0.291409 4.695735 7.148456 0.000000 0.000000 0.000000 -2.582941 0.229995 -2.884145 0.913062 -0.156286 -0.963789 2.682253 4.714254 5.793665 0.000000 0.000000 0.000000 0.658296 0.086466 -2.792459 3.080245 -1.174210 -2.896418 -2.896991 -4.724964 6.007789 2.380877 -0.742737 -8.319734 0.000000 0.000000 0.000000 -18.186816 0.705557 -3.277336 -50.545223 4.730011 -7.802074 -33.226744 -33.439938 10.906425 0.000000 0.000000 0.000000 17.493103 -2.993602 -2.038265 55.630988 1.020026 -5.113287 16.179919 37.312693 7.251350 0.000000 0.000000 0.000000 
-0.000895 0.946051 0.002678 -1.386858 16.886879 3.387436 3.811803 -0.126511 2.114592 0.966598 0.113200 -5.456674 0.406110 5.029214 7.440366 0.000000 0.000000 0.000000 -2.566926 0.231909 -2.904738 0.801793 -0.136433 -0.777411 2.575051 4.489212 5.730895 0.000000 0.000000 0.000000 0.603275 0.074512 -2.412305 3.359168 -1.289724 -3.007367 -3.234069 -4.699866 6.025404 2.340906 -0.685631 -8.508220 0.000000 0.000000 0.000000 -18.262254 1.226407 -3.571357 -49.540515 5.748588 -8.008632 -38.170794 -36.952141 13.878303 0.000000 0.000000 0.000000 17.394259 -3.378140 -2.227479 55.313521 -0.082957 -5.575453 18.783360 40.096183 8.876562 0.000000 0.000000 0.000000 
-0.001409 0.945967 0.002047 -1.496878 16.463242 3.160301 3.619965 -0.102987 2.187421 1.308508 0.095063 -5.187345 0.531819 5.179749 7.361955 0.000000 0.000000 0.000000 -2.526444 0.239737 -2.980783 0.825876 -0.125623 -0.251438 2.566541 4.506935 5.531589 0.000000 0.000000 0.000000 0.621691 0.064189 -2.061719 3.359199 -1.294937 -2.987423 -3.085244 -4.377367 6.173941 2.408610 -0.644824 -9.152308 0.000000 0.000000 0.000000 -18.485592 1.363316 -3.694910 -48.321399 6.490666 -8.058404 -44.623723 -40.828770 18.093139 0.000000 0.000000 0.000000 16.996386 -3.316643 -2.151894 55.009041 -0.945209 -5.933778 20.654719 42.840717 10.370465 0.000000 0.000000 0.000000 
-0.002041 0.945717 0.001154 -1.531444 15.915923 2.992856 3.531373 -0.083789 2.337142 1.219278 0.090873 -4.921619 0.747730 5.340756 7.008258 0.000000 0.000000 0.000000 -2.557255 0.249649 -3.105042 0.933316 -0.127956 0.240456 2.563562 4.592601 5.159211 0.000000 0.000000 0.000000 0.540085 0.050222 -1.623639 3.612932 -1.435751 -2.794613 -3.247972 -3.744067 6.041398 2.735788 -0.814794 -9.357201 0.000000 0.000000 0.000000 -18.424335 1.385992 -3.785308 -47.087431 6.809454 -7.896974 -51.148712 -44.256874 22.690059 0.000000 0.000000 0.000000 17.242612 -3.574387 -2.231490 54.493159 -1.726324 -6.227225 22.302725 45.557357 11.940619 0.000000 0.000000 0.000000 
-0.002763 0.945409 0.000257 -1.625418 15.235042 2.761302 3.520060 -0.068695 2.487250 1.085955 0.083201 -4.484313 1.335472 6.173428 6.739751 0.000000 0.000000 0.000000 -2.468722 0.262827 -3.210625 1.052310 -0.133673 0.678856 2.588665 4.704993 4.881420 0.000000 0.000000 0.000000 0.435202 0.042744 -1.367562 3.684761 -1.487483 -2.668144 -2.989390 -3.450417 6.181740 2.737544 -0.752120 -9.915248 0.000000 0.000000 0.000000 -18.771478 1.213761 -3.727252 -45.649714 6.945191 -7.661883 -59.691789 -46.719776 28.565586 0.000000 0.000000 0.000000 17.463487 -3.260485 -2.099449 53.752090 -2.261223 -6.410287 23.476508 48.292405 13.326725 0.000000 0.000000 0.000000 
-0.003584 0.945129 -0.000544 -1.675733 14.547883 2.464948 3.635993 -0.056218 2.807157 1.033094 0.087457 -4.535789 1.488518 6.419654 6.794925 0.000000 0.000000 0.000000 -2.382589 0.254307 -3.050121 1.101354 -0.138208 0.693097 2.896588 5.366496 4.882700 0.000000 0.000000 0.000000 0.355340 0.035992 -1.138666 3.757202 -1.594091 -2.046995 -2.790024 -3.425399 5.926913 2.779954 -0.791723 -10.077797 0.000000 0.000000 0.000000 -18.994392 1.184551 -3.650862 -44.242764 6.669572 -7.284721 -68.154729 -48.598068 34.870366 0.000000 0.000000 0.000000 17.541869 -3.234176 -2.194193 53.193614 -2.733370 -6.526091 24.458453 50.341888 14.380846 0.000000 0.000000 0.000000 
-0.004442 0.944622 -0.001198 -1.660655 13.630740 2.244077 3.623497 -0.033050 3.074560 0.814193 0.093499 -4.392121 1.986900 7.162658 6.668974 0.000000 0.000000 0.000000 -2.432497 0.258492 -3.088346 1.286822 -0.154536 1.056551 3.212626 6.059573 4.815781 0.000000 0.000000 0.000000 0.066609 0.035860 -1.069665 3.958490 -1.695502 -2.025064 -2.498954 -3.655730 6.196264 2.674577 -0.685872 -10.872664 0.000000 0.000000 0.000000 -19.233749 0.851536 -3.317182 -43.129253 6.465822 -7.060976 -76.562565 -50.336581 42.005390 0.000000 0.000000 0.000000 17.897181 -3.005393 -2.260761 52.193194 -3.047501 -6.566119 25.319630 52.628284 15.440799 0.000000 0.000000 0.000000 
-0.005308 0.943999 -0.001909 -1.775500 12.647803 1.891937 3.777109 -0.004910 3.768068 0.590574 0.107940 -4.500342 2.295378 7.576105 6.527987 0.000000 0.000000 0.000000 -2.261907 0.261079 -3.030113 1.078185 -0.118009 1.190016 3.612555 6.982709 4.676219 0.000000 0.000000 0.000000 0.065607 0.026795 -0.788242 4.165864 -1.853249 -1.530742 -2.222263 -3.942290 6.079916 2.468615 -0.551823 -11.480775 0.000000 0.000000 0.000000 -19.209956 0.676060 -2.992119 -42.136008 6.249229 -6.850307 -85.283448 -50.860898 49.102251 0.000000 0.000000 0.000000 18.017286 -3.250983 -2.616688 51.521740 -3.651680 -6.695423 27.086092 55.758309 17.292171 0.000000 0.000000 0.000000 
-0.006147 0.943446 -0.002635 -1.734707 11.800517 1.648663 3.707928 0.025817 4.088768 0.579997 0.103740 -4.315579 2.679883 8.001176 6.027884 0.000000 0.000000 0.000000 -2.109731 0.280891 -3.202078 0.826335 -0.067518 1.701910 3.951062 7.950421 4.199156 0.000000 0.000000 0.000000 -0.244622 0.023610 -0.635205 4.374034 -1.960633 -1.485054 -1.828267 -4.646344 6.329836 2.345607 -0.486682 -12.377772 0.000000 0.000000 0.000000 -19.368949 0.146111 -2.411539 -41.233008 5.487944 -6.541438 -92.222091 -51.206531 55.511869 0.000000 0.000000 0.000000 18.034321 -3.216642 -2.875936 50.853111 -4.513562 -6.940204 30.497577 59.526486 20.426508 0.000000 0.000000 0.000000 
-0.007011 0.943155 -0.003514 -1.658650 10.973705 1.684678 3.472645 0.065921 4.350035 0.662370 0.104290 -4.441791 2.871202 8.386953 6.270778 0.000000 0.000000 0.000000 -2.037528 0.308636 -3.476667 0.768183 -0.051161 1.920371 4.038445 8.193460 4.036001 0.000000 0.000000 0.000000 -0.451397 0.025215 -0.639655 4.795548 -2.167823 -1.445992 -1.716962 -5.343496 6.316312 2.053473 -0.360713 -12.798802 0.000000 0.000000 0.000000 -19.272104 -0.368530 -1.827257 -40.924786 4.434483 -6.234663 -98.025003 -50.476479 60.233183 0.000000 0.000000 0.000000 18.159460 -3.750113 -3.445536 50.087942 -5.264596 -7.078816 36.020477 63.210725 25.201491 0.000000 0.000000 0.000000 
-0.008042 0.943055 -0.004463 -1.700000 10.437441 1.586805 3.305441 0.100840 4.676614 1.016533 0.087826 -4.484295 3.095792 8.756901 6.293756 0.000000 0.000000 0.000000 -1.729097 0.357614 -3.947960 0.418715 0.010792 2.285430 4.303913 8.668842 4.250951 0.000000 0.000000 0.000000 -0.735729 0.026888 -0.646252 5.217571 -2.376980 -1.397077 -1.524971 -6.335448 6.418267 2.058088 -0.472177 -12.999753 0.000000 0.000000 0.000000 -19.516212 -1.523076 -0.882746 -40.761158 2.461915 -5.703148 -102.574989 -49.811813 64.317472 0.000000 0.000000 0.000000 18.379841 -3.617367 -3.708863 49.473504 -6.102626 -7.270145 42.253835 66.661056 30.837600 0.000000 0.000000 0.000000 
